<mxfile host="Electron" agent="Mozilla/5.0 (X11; Linux x86_64) AppleWebKit/537.36 (KHTML, like Gecko) draw.io/28.1.2 Chrome/138.0.7204.243 Electron/37.4.0 Safari/537.36" version="28.1.2">
  <diagram name="Página-1" id="6T-D4vGZO8U-r9z5E_UV">
    <mxGraphModel dx="1426" dy="843" grid="1" gridSize="10" guides="1" tooltips="1" connect="1" arrows="1" fold="1" page="1" pageScale="1" pageWidth="827" pageHeight="1169" math="0" shadow="0">
      <root>
        <mxCell id="0" />
        <mxCell id="1" parent="0" />
        <mxCell id="mbQokMcIHhatKAjo8Q0s-1" value="Servidor da Aplicação" style="swimlane;whiteSpace=wrap;html=1;" vertex="1" parent="1">
          <mxGeometry x="314" y="190" width="200" height="200" as="geometry" />
        </mxCell>
        <mxCell id="mbQokMcIHhatKAjo8Q0s-2" value="Aplicação&lt;div&gt;Vercel&lt;/div&gt;" style="rounded=0;whiteSpace=wrap;html=1;" vertex="1" parent="mbQokMcIHhatKAjo8Q0s-1">
          <mxGeometry x="40" y="70" width="120" height="60" as="geometry" />
        </mxCell>
        <mxCell id="mbQokMcIHhatKAjo8Q0s-3" value="Dispositivo do Usuário" style="swimlane;whiteSpace=wrap;html=1;" vertex="1" parent="1">
          <mxGeometry x="114" y="520" width="200" height="200" as="geometry" />
        </mxCell>
        <mxCell id="mbQokMcIHhatKAjo8Q0s-5" value="Navegador Web" style="rounded=0;whiteSpace=wrap;html=1;" vertex="1" parent="mbQokMcIHhatKAjo8Q0s-3">
          <mxGeometry x="40" y="70" width="120" height="60" as="geometry" />
        </mxCell>
        <mxCell id="mbQokMcIHhatKAjo8Q0s-4" value="Servidor Banco de Dados" style="swimlane;whiteSpace=wrap;html=1;" vertex="1" parent="1">
          <mxGeometry x="514" y="520" width="200" height="200" as="geometry" />
        </mxCell>
        <mxCell id="mbQokMcIHhatKAjo8Q0s-6" value="Adonis.Js" style="rounded=0;whiteSpace=wrap;html=1;" vertex="1" parent="mbQokMcIHhatKAjo8Q0s-4">
          <mxGeometry x="40" y="70" width="120" height="60" as="geometry" />
        </mxCell>
        <mxCell id="mbQokMcIHhatKAjo8Q0s-7" value="" style="endArrow=block;dashed=1;html=1;dashPattern=1 3;strokeWidth=2;rounded=0;entryX=0;entryY=1;entryDx=0;entryDy=0;exitX=0.467;exitY=0;exitDx=0;exitDy=0;exitPerimeter=0;endFill=1;startArrow=block;startFill=1;" edge="1" parent="1" source="mbQokMcIHhatKAjo8Q0s-5" target="mbQokMcIHhatKAjo8Q0s-2">
          <mxGeometry width="50" height="50" relative="1" as="geometry">
            <mxPoint x="310" y="370" as="sourcePoint" />
            <mxPoint x="340" y="330" as="targetPoint" />
          </mxGeometry>
        </mxCell>
        <mxCell id="mbQokMcIHhatKAjo8Q0s-8" value="" style="endArrow=block;dashed=1;html=1;dashPattern=1 3;strokeWidth=2;rounded=0;entryX=1;entryY=1;entryDx=0;entryDy=0;exitX=0.5;exitY=0;exitDx=0;exitDy=0;endFill=1;startArrow=block;startFill=1;" edge="1" parent="1" source="mbQokMcIHhatKAjo8Q0s-6" target="mbQokMcIHhatKAjo8Q0s-2">
          <mxGeometry width="50" height="50" relative="1" as="geometry">
            <mxPoint x="580" y="720" as="sourcePoint" />
            <mxPoint x="724" y="450" as="targetPoint" />
          </mxGeometry>
        </mxCell>
        <mxCell id="mbQokMcIHhatKAjo8Q0s-9" value="" style="rounded=0;whiteSpace=wrap;html=1;fillColor=none;strokeWidth=3;" vertex="1" parent="1">
          <mxGeometry x="90" y="170" width="650" height="570" as="geometry" />
        </mxCell>
      </root>
    </mxGraphModel>
  </diagram>
</mxfile>
